<svg width="800" height="600" version="1.1" xmlns="http://www.w3.org/2000/svg">
	<rect x="0" y="0" width="100%" height="100%" fill="rgba(0, 0, 0, 0.5)"/>
	<rect x="600" y="550" width="50" height="50" fill="rgba(150,255,220,0.25)"/>
	<rect x="400" y="50" width="50" height="50" fill="rgba(190,255,220,0.5)"/>
	<rect x="0" y="450" width="50" height="50" fill="rgba(190,255,220,0.5)"/>
	<rect x="250" y="100" width="50" height="50" fill="rgba(150,255,220,0.25)"/>
	<rect x="550" y="100" width="50" height="50" fill="rgba(255,220,190,0.5)"/>
	<rect x="300" y="150" width="50" height="50" fill="rgba(255,220,190,0.5)"/>
	<rect x="350" y="150" width="50" height="50" fill="rgba(255,220,190,0.5)"/>
	<rect x="150" y="300" width="50" height="50" fill="rgba(150,255,220,0.25)"/>
	<rect x="100" y="150" width="50" height="50" fill="rgba(255,220,190,0.5)"/>
	<rect x="350" y="550" width="50" height="50" fill="rgba(220,190,255,0.5)"/>
	<rect x="450" y="100" width="50" height="50" fill="rgba(255,220,190,0.5)"/>
	<rect x="700" y="400" width="50" height="50" fill="rgba(220,190,255,0.5)"/>
	<rect x="350" y="150" width="50" height="50" fill="rgba(255,220,190,0.5)"/>
	<rect x="350" y="550" width="50" height="50" fill="rgba(255,220,190,0.5)"/>
	<rect x="450" y="100" width="50" height="50" fill="rgba(150,255,220,0.25)"/>
	<rect x="600" y="100" width="50" height="50" fill="rgba(255,220,250,0.25)"/>
	<rect x="750" y="500" width="50" height="50" fill="rgba(220,250,255,0.25)"/>
	<rect x="400" y="150" width="50" height="50" fill="rgba(220,250,255,0.25)"/>
	<rect x="550" y="200" width="50" height="50" fill="rgba(255,220,250,0.25)"/>
	<rect x="350" y="200" width="50" height="50" fill="rgba(255,220,250,0.25)"/>
	<rect x="50" y="500" width="50" height="50" fill="rgba(220,250,255,0.25)"/>
	<rect x="100" y="500" width="50" height="50" fill="rgba(150,255,220,0.25)"/>
	<rect x="250" y="100" width="50" height="50" fill="rgba(220,250,255,0.25)"/>
	<rect x="400" y="250" width="50" height="50" fill="rgba(150,255,220,0.25)"/>
	<rect x="650" y="500" width="50" height="50" fill="rgba(150,255,220,0.25)"/>
	<rect x="100" y="200" width="50" height="50" fill="rgba(220,250,255,0.25)"/>
	<rect x="750" y="50" width="50" height="50" fill="rgba(220,250,255,0.25)"/>
	<rect x="400" y="500" width="50" height="50" fill="rgba(150,255,220,0.25)"/>
	<rect x="600" y="250" width="50" height="50" fill="rgba(190,255,220,0.5)"/>
	<rect x="300" y="150" width="50" height="50" fill="rgba(220,190,255,0.5)"/>
	<rect x="550" y="50" width="50" height="50" fill="rgba(220,250,255,0.25)"/>
	<rect x="250" y="350" width="50" height="50" fill="rgba(255,220,250,0.25)"/>
	<rect x="300" y="500" width="50" height="50" fill="rgba(220,190,255,0.5)"/>
	<rect x="150" y="300" width="50" height="50" fill="rgba(255,220,250,0.25)"/>
	<rect x="300" y="350" width="50" height="50" fill="rgba(150,255,220,0.25)"/>
	<rect x="400" y="150" width="50" height="50" fill="rgba(220,190,255,0.5)"/>
	<rect x="50" y="450" width="50" height="50" fill="rgba(190,255,220,0.5)"/>
	<rect x="50" y="450" width="50" height="50" fill="rgba(190,255,220,0.5)"/>
	<rect x="0" y="400" width="50" height="50" fill="rgba(190,255,220,0.5)"/>
	<rect x="350" y="250" width="50" height="50" fill="rgba(220,190,255,0.5)"/>
	<rect x="600" y="150" width="50" height="50" fill="rgba(220,190,255,0.5)"/>
	<rect x="400" y="500" width="50" height="50" fill="rgba(255,220,250,0.25)"/>
	<rect x="300" y="150" width="50" height="50" fill="rgba(255,220,250,0.25)"/>
	<rect x="100" y="150" width="50" height="50" fill="rgba(255,220,190,0.5)"/>
	<rect x="300" y="300" width="50" height="50" fill="rgba(255,220,250,0.25)"/>
	<rect x="300" y="150" width="50" height="50" fill="rgba(220,250,255,0.25)"/>
	<rect x="200" y="50" width="50" height="50" fill="rgba(220,190,255,0.5)"/>
	<rect x="400" y="500" width="50" height="50" fill="rgba(220,190,255,0.5)"/>
	<rect x="100" y="550" width="50" height="50" fill="rgba(255,220,250,0.25)"/>
	<rect x="300" y="150" width="50" height="50" fill="rgba(220,250,255,0.25)"/>
	<rect x="300" y="450" width="50" height="50" fill="rgba(220,190,255,0.5)"/>
	<rect x="400" y="0" width="50" height="50" fill="rgba(220,190,255,0.5)"/>
	<rect x="150" y="150" width="50" height="50" fill="rgba(150,255,220,0.25)"/>
	<rect x="450" y="200" width="50" height="50" fill="rgba(255,220,250,0.25)"/>
	<rect x="350" y="350" width="50" height="50" fill="rgba(150,255,220,0.25)"/>
	<rect x="250" y="550" width="50" height="50" fill="rgba(150,255,220,0.25)"/>
	<rect x="450" y="450" width="50" height="50" fill="rgba(150,255,220,0.25)"/>
	<rect x="150" y="500" width="50" height="50" fill="rgba(150,255,220,0.25)"/>
	<rect x="600" y="50" width="50" height="50" fill="rgba(220,190,255,0.5)"/>
	<rect x="750" y="200" width="50" height="50" fill="rgba(220,250,255,0.25)"/>
	<rect x="400" y="50" width="50" height="50" fill="rgba(150,255,220,0.25)"/>
	<rect x="100" y="500" width="50" height="50" fill="rgba(150,255,220,0.25)"/>
	<rect x="450" y="150" width="50" height="50" fill="rgba(190,255,220,0.5)"/>
	<rect x="450" y="200" width="50" height="50" fill="rgba(150,255,220,0.25)"/>
	<rect x="100" y="200" width="50" height="50" fill="rgba(220,250,255,0.25)"/>
	<rect x="350" y="300" width="50" height="50" fill="rgba(255,220,250,0.25)"/>
	<rect x="300" y="550" width="50" height="50" fill="rgba(190,255,220,0.5)"/>
	<rect x="350" y="250" width="50" height="50" fill="rgba(190,255,220,0.5)"/>
	<rect x="150" y="100" width="50" height="50" fill="rgba(150,255,220,0.25)"/>
	<rect x="400" y="350" width="50" height="50" fill="rgba(255,220,190,0.5)"/>
	<rect x="150" y="100" width="50" height="50" fill="rgba(190,255,220,0.5)"/>
	<rect x="500" y="400" width="50" height="50" fill="rgba(255,220,250,0.25)"/>
	<rect x="300" y="50" width="50" height="50" fill="rgba(255,220,250,0.25)"/>
	<rect x="350" y="50" width="50" height="50" fill="rgba(255,220,250,0.25)"/>
	<rect x="350" y="200" width="50" height="50" fill="rgba(220,190,255,0.5)"/>
	<rect x="50" y="550" width="50" height="50" fill="rgba(220,250,255,0.25)"/>
	<rect x="150" y="100" width="50" height="50" fill="rgba(255,220,190,0.5)"/>
	<rect x="400" y="150" width="50" height="50" fill="rgba(220,190,255,0.5)"/>
	<rect x="50" y="550" width="50" height="50" fill="rgba(150,255,220,0.25)"/>
	<rect x="400" y="350" width="50" height="50" fill="rgba(255,220,250,0.25)"/>
	<rect x="300" y="550" width="50" height="50" fill="rgba(220,190,255,0.5)"/>
	<rect x="50" y="300" width="50" height="50" fill="rgba(255,220,190,0.5)"/>
	<rect x="450" y="50" width="50" height="50" fill="rgba(190,255,220,0.5)"/>
	<rect x="450" y="550" width="50" height="50" fill="rgba(255,220,250,0.25)"/>
	<rect x="250" y="300" width="50" height="50" fill="rgba(255,220,250,0.25)"/>
	<rect x="550" y="300" width="50" height="50" fill="rgba(255,220,250,0.25)"/>
	<rect x="300" y="500" width="50" height="50" fill="rgba(255,220,190,0.5)"/>
	<rect x="150" y="300" width="50" height="50" fill="rgba(255,220,250,0.25)"/>
	<rect x="350" y="400" width="50" height="50" fill="rgba(190,255,220,0.5)"/>
	<rect x="100" y="0" width="50" height="50" fill="rgba(150,255,220,0.25)"/>
	<rect x="600" y="100" width="50" height="50" fill="rgba(220,250,255,0.25)"/>
	<rect x="150" y="300" width="50" height="50" fill="rgba(255,220,250,0.25)"/>
	<rect x="350" y="300" width="50" height="50" fill="rgba(255,220,250,0.25)"/>
	<rect x="100" y="200" width="50" height="50" fill="rgba(255,220,190,0.5)"/>
	<rect x="700" y="150" width="50" height="50" fill="rgba(255,220,250,0.25)"/>
	<rect x="100" y="250" width="50" height="50" fill="rgba(150,255,220,0.25)"/>
	<rect x="150" y="550" width="50" height="50" fill="rgba(190,255,220,0.5)"/>
	<rect x="200" y="450" width="50" height="50" fill="rgba(220,250,255,0.25)"/>
	<rect x="0" y="450" width="50" height="50" fill="rgba(255,220,250,0.25)"/>
	<rect x="100" y="550" width="50" height="50" fill="rgba(150,255,220,0.25)"/>
	<rect x="100" y="200" width="50" height="50" fill="rgba(190,255,220,0.5)"/>
	<rect x="300" y="550" width="50" height="50" fill="rgba(150,255,220,0.25)"/>
	<rect x="450" y="200" width="50" height="50" fill="rgba(190,255,220,0.5)"/>
	<rect x="100" y="500" width="50" height="50" fill="rgba(150,255,220,0.25)"/>
	<rect x="600" y="250" width="50" height="50" fill="rgba(255,220,250,0.25)"/>
	<rect x="650" y="250" width="50" height="50" fill="rgba(150,255,220,0.25)"/>
	<rect x="100" y="500" width="50" height="50" fill="rgba(150,255,220,0.25)"/>
	<rect x="250" y="350" width="50" height="50" fill="rgba(255,220,190,0.5)"/>
	<rect x="150" y="100" width="50" height="50" fill="rgba(220,250,255,0.25)"/>
	<rect x="50" y="550" width="50" height="50" fill="rgba(220,250,255,0.25)"/>
	<rect x="350" y="150" width="50" height="50" fill="rgba(220,190,255,0.5)"/>
	<rect x="500" y="400" width="50" height="50" fill="rgba(190,255,220,0.5)"/>
	<rect x="100" y="150" width="50" height="50" fill="rgba(220,190,255,0.5)"/>
	<rect x="350" y="500" width="50" height="50" fill="rgba(220,190,255,0.5)"/>
	<rect x="150" y="100" width="50" height="50" fill="rgba(190,255,220,0.5)"/>
	<rect x="250" y="350" width="50" height="50" fill="rgba(190,255,220,0.5)"/>
	<rect x="450" y="350" width="50" height="50" fill="rgba(150,255,220,0.25)"/>
	<rect x="200" y="50" width="50" height="50" fill="rgba(220,190,255,0.5)"/>
	<rect x="600" y="150" width="50" height="50" fill="rgba(220,190,255,0.5)"/>
	<rect x="400" y="500" width="50" height="50" fill="rgba(255,220,250,0.25)"/>
	<rect x="300" y="150" width="50" height="50" fill="rgba(255,220,250,0.25)"/>
	<rect x="100" y="150" width="50" height="50" fill="rgba(255,220,190,0.5)"/>
	<rect x="300" y="300" width="50" height="50" fill="rgba(255,220,250,0.25)"/>
	<rect x="300" y="150" width="50" height="50" fill="rgba(220,250,255,0.25)"/>
	<rect x="200" y="50" width="50" height="50" fill="rgba(220,190,255,0.5)"/>
	<rect x="400" y="500" width="50" height="50" fill="rgba(220,190,255,0.5)"/>
	<rect x="100" y="550" width="50" height="50" fill="rgba(255,220,250,0.25)"/>
	<rect x="300" y="150" width="50" height="50" fill="rgba(220,250,255,0.25)"/>
	<rect x="300" y="450" width="50" height="50" fill="rgba(220,190,255,0.5)"/>
	<rect x="400" y="0" width="50" height="50" fill="rgba(220,190,255,0.5)"/>
	<rect x="150" y="150" width="50" height="50" fill="rgba(150,255,220,0.25)"/>
	<rect x="450" y="200" width="50" height="50" fill="rgba(255,220,250,0.25)"/>
	<rect x="350" y="350" width="50" height="50" fill="rgba(150,255,220,0.25)"/>
	<rect x="250" y="550" width="50" height="50" fill="rgba(150,255,220,0.25)"/>
	<rect x="450" y="450" width="50" height="50" fill="rgba(150,255,220,0.25)"/>
	<rect x="150" y="500" width="50" height="50" fill="rgba(150,255,220,0.25)"/>
	<rect x="600" y="50" width="50" height="50" fill="rgba(220,190,255,0.5)"/>
	<rect x="750" y="200" width="50" height="50" fill="rgba(220,250,255,0.25)"/>
	<rect x="400" y="50" width="50" height="50" fill="rgba(150,255,220,0.25)"/>
	<rect x="100" y="500" width="50" height="50" fill="rgba(150,255,220,0.25)"/>
	<rect x="450" y="150" width="50" height="50" fill="rgba(190,255,220,0.5)"/>
	<rect x="450" y="200" width="50" height="50" fill="rgba(150,255,220,0.25)"/>
	<rect x="100" y="200" width="50" height="50" fill="rgba(220,250,255,0.25)"/>
	<rect x="350" y="300" width="50" height="50" fill="rgba(255,220,250,0.25)"/>
	<rect x="300" y="550" width="50" height="50" fill="rgba(190,255,220,0.5)"/>
	<rect x="350" y="250" width="50" height="50" fill="rgba(190,255,220,0.5)"/>
	<rect x="150" y="100" width="50" height="50" fill="rgba(150,255,220,0.25)"/>
	<rect x="400" y="350" width="50" height="50" fill="rgba(255,220,190,0.5)"/>
	<rect x="150" y="100" width="50" height="50" fill="rgba(190,255,220,0.5)"/>
	<rect x="500" y="400" width="50" height="50" fill="rgba(255,220,250,0.25)"/>
	<rect x="300" y="50" width="50" height="50" fill="rgba(255,220,250,0.25)"/>
	<rect x="350" y="50" width="50" height="50" fill="rgba(255,220,250,0.25)"/>
	<rect x="350" y="200" width="50" height="50" fill="rgba(220,190,255,0.5)"/>
	<rect x="50" y="550" width="50" height="50" fill="rgba(220,250,255,0.25)"/>
	<rect x="0" y="0" width="50" height="50" fill="rgba(255,220,190,0.5)"/>
</svg>